<?xml version="1.0" standalone="no"?><!DOCTYPE svg PUBLIC "-//W3C//DTD SVG 1.1//EN" "http://www.w3.org/Graphics/SVG/1.1/DTD/svg11.dtd"><svg class="icon" width="48px" height="48.00px" viewBox="0 0 1024 1024" version="1.1" xmlns="http://www.w3.org/2000/svg"><path fill="#ffffff" d="M780.064268 991.965399M935.413406 841.401242 122.401748 841.401242c-2.538823 0-10.178827-8.055466-10.178827-22.689768L112.222921 158.963455c0-13.06455-10.571776-23.636327-23.635303-23.636327s-23.635303 10.571776-23.635303 23.636327l0 659.748019c0 39.238676 25.228591 69.961398 57.450457 69.961398l813.011658 0c13.06455 0 23.635303-10.571776 23.635303-23.636327S948.477956 841.401242 935.413406 841.401242zM186.54565 580.713988c6.04774 0 12.117992-2.308579 16.734126-6.947226l214.586286-215.122499 215.128639 214.591403c4.616134 4.593622 10.640338 6.901177 16.688077 6.901177s12.117992-2.308579 16.734126-6.947226l231.280504-231.857649c9.209756-9.232269 9.209756-24.212448-0.046049-33.422204-9.232269-9.18622-24.189935-9.232269-33.422204 0.046049L649.64287 523.079336 434.514231 308.48691c-9.232269-9.18622-24.189935-9.232269-33.422204 0.046049L169.811524 540.390607c-9.209756 9.232269-9.209756 24.212448 0.046049 33.422204C174.473707 578.406432 180.49791 580.713988 186.54565 580.713988z" /></svg>